<?xml version="1.0" encoding="UTF-8" standalone="no"?>
<svg width="1200" height="600" viewBox="0 0 1200 600" xmlns="http://www.w3.org/2000/svg">
  <!-- Background gradient -->
  <defs>
    <linearGradient id="bgGradient" x1="0%" y1="0%" x2="100%" y2="100%">
      <stop offset="0%" stop-color="#1e293b" />
      <stop offset="100%" stop-color="#0f172a" />
    </linearGradient>
    <!-- Pattern for the background -->
    <pattern id="gridPattern" width="40" height="40" patternUnits="userSpaceOnUse">
      <path d="M0 0 L40 0 L40 40 L0 40 Z" fill="none" stroke="#334155" stroke-width="0.5" opacity="0.3" />
    </pattern>
  </defs>
  
  <!-- Main background -->
  <rect width="100%" height="100%" fill="url(#bgGradient)" />
  <rect width="100%" height="100%" fill="url(#gridPattern)" />
  
  <!-- Abstract shape decorations -->
  <circle cx="200" cy="150" r="100" fill="#475569" opacity="0.15" />
  <circle cx="1000" cy="450" r="120" fill="#64748b" opacity="0.1" />
  <path d="M900 100 Q1050 150 1000 300 T1100 500" stroke="#94a3b8" stroke-width="3" fill="none" opacity="0.2" />
  
  <!-- Stylized document icons -->
  <!-- Document 1 -->
  <g transform="translate(250, 200)">
    <rect x="0" y="0" width="160" height="200" rx="5" fill="#f8fafc" opacity="0.9" />
    <rect x="20" y="30" width="120" height="10" rx="2" fill="#334155" opacity="0.8" />
    <rect x="20" y="55" width="90" height="5" rx="2" fill="#475569" opacity="0.6" />
    <rect x="20" y="70" width="100" height="5" rx="2" fill="#475569" opacity="0.6" />
    <rect x="20" y="85" width="70" height="5" rx="2" fill="#475569" opacity="0.6" />
    <rect x="20" y="110" width="120" height="40" rx="2" fill="#64748b" opacity="0.3" />
    <rect x="20" y="160" width="50" height="20" rx="10" fill="#0891b2" opacity="0.7" />
  </g>
  
  <!-- Document 2 -->
  <g transform="translate(450, 250)">
    <rect x="0" y="0" width="160" height="200" rx="5" fill="#f8fafc" opacity="0.9" />
    <rect x="20" y="30" width="120" height="10" rx="2" fill="#334155" opacity="0.8" />
    <rect x="20" y="55" width="90" height="5" rx="2" fill="#475569" opacity="0.6" />
    <rect x="20" y="70" width="100" height="5" rx="2" fill="#475569" opacity="0.6" />
    <rect x="20" y="85" width="70" height="5" rx="2" fill="#475569" opacity="0.6" />
    <rect x="20" y="110" width="120" height="40" rx="2" fill="#64748b" opacity="0.3" />
    <rect x="20" y="160" width="50" height="20" rx="10" fill="#d946ef" opacity="0.7" />
  </g>
  
  <!-- Document 3 -->
  <g transform="translate(650, 150)">
    <rect x="0" y="0" width="160" height="200" rx="5" fill="#f8fafc" opacity="0.9" />
    <rect x="20" y="30" width="120" height="10" rx="2" fill="#334155" opacity="0.8" />
    <rect x="20" y="55" width="90" height="5" rx="2" fill="#475569" opacity="0.6" />
    <rect x="20" y="70" width="100" height="5" rx="2" fill="#475569" opacity="0.6" />
    <rect x="20" y="85" width="70" height="5" rx="2" fill="#475569" opacity="0.6" />
    <rect x="20" y="110" width="120" height="40" rx="2" fill="#64748b" opacity="0.3" />
    <rect x="20" y="160" width="50" height="20" rx="10" fill="#f97316" opacity="0.7" />
  </g>
  
  <!-- Document 4 -->
  <g transform="translate(850, 300)">
    <rect x="0" y="0" width="160" height="200" rx="5" fill="#f8fafc" opacity="0.9" />
    <rect x="20" y="30" width="120" height="10" rx="2" fill="#334155" opacity="0.8" />
    <rect x="20" y="55" width="90" height="5" rx="2" fill="#475569" opacity="0.6" />
    <rect x="20" y="70" width="100" height="5" rx="2" fill="#475569" opacity="0.6" />
    <rect x="20" y="85" width="70" height="5" rx="2" fill="#475569" opacity="0.6" />
    <rect x="20" y="110" width="120" height="40" rx="2" fill="#64748b" opacity="0.3" />
    <rect x="20" y="160" width="50" height="20" rx="10" fill="#22c55e" opacity="0.7" />
  </g>
</svg>
